<?xml version="1.0" standalone="no"?>
<!DOCTYPE svg PUBLIC "-//W3C//DTD SVG 20010904//EN"
 "http://www.w3.org/TR/2001/REC-SVG-20010904/DTD/svg10.dtd">
<svg version="1.0" xmlns="http://www.w3.org/2000/svg"
 width="192.000000pt" height="192.000000pt" viewBox="0 0 192.000000 192.000000"
 preserveAspectRatio="xMidYMid meet">
<metadata>
Created by potrace 1.11, written by Peter Selinger 2001-2013
</metadata>
<g transform="translate(0.000000,192.000000) scale(0.100000,-0.100000)"
fill="#000000" stroke="none">
<path d="M945 1798 c-3 -7 -12 -40 -21 -73 -37 -139 -41 -150 -55 -147 -8 2
-73 32 -144 68 -72 35 -136 64 -143 64 -6 0 -12 -10 -13 -22 -1 -13 -3 -48 -4
-78 -2 -30 -4 -83 -5 -116 -1 -34 -5 -66 -9 -72 -4 -7 -55 9 -141 43 -154 62
-173 65 -166 33 3 -13 10 -48 16 -78 6 -30 13 -66 15 -80 3 -14 8 -38 11 -55
3 -16 9 -48 14 -70 5 -22 8 -40 7 -41 -1 -1 -68 17 -150 41 -81 23 -149 39
-152 35 -5 -7 33 -87 282 -600 47 -96 112 -230 144 -297 33 -67 66 -129 75
-137 14 -14 77 -16 513 -16 462 0 499 1 513 18 8 9 88 215 178 457 240 647
216 573 194 594 -17 16 -293 178 -434 254 -30 16 -62 35 -70 41 -8 7 -40 25
-70 40 -30 16 -62 35 -71 42 -8 8 -18 14 -21 14 -4 0 -64 34 -135 75 -133 77
-150 84 -158 63z"/>
</g>
</svg>
