<svg width="35" height="35" viewBox="0 0 35 35" fill="none" xmlns="http://www.w3.org/2000/svg">
<g id="ico/profile">
<circle id="Oval" cx="17.5" cy="17.5" r="17.5" fill="#BBC0D0"/>
<path id="Shape" fill-rule="evenodd" clip-rule="evenodd" d="M21.6402 10.777C21.7478 11.7131 21.5672 12.8767 21.0738 14.0391C20.2239 16.0414 18.7266 17.3787 17.5098 17.3286C16.293 17.3787 14.7956 16.0414 13.9457 14.0391C13.623 13.2788 13.4341 12.5179 13.3721 11.8205C13.3466 11.634 13.3334 11.4436 13.3334 11.2502C13.3334 8.94898 15.1989 7.0835 17.5001 7.0835C19.6413 7.0835 21.4052 8.69859 21.6402 10.777ZM10.5545 26.6668C10.4642 26.2573 10.4167 25.8389 10.4167 25.4168C10.4167 21.965 13.5881 19.1668 17.5001 19.1668C21.4121 19.1668 24.5834 21.965 24.5834 25.4168C24.5834 25.8389 24.536 26.2573 24.4456 26.6668H10.5545Z" fill="white"/>
</g>
</svg>
